:FULLY-SPECIFIED
:DEGREES
1
root 4.46328 16.5346 -2.5924 -45.281 -85.3391 49.0415
lowerback 2.50784 -0.141849 -3.98454
upperback 1.58142 -0.290971 -0.505551
thorax 0.234417 -0.180464 1.7209
lowerneck -18.3115 -0.419686 -0.755684
upperneck 20.3833 -1.30053 3.34686
head 9.49399 -0.329997 1.10281
rclavicle -5.1684e-015 -8.54774e-015
rhumerus -31.2192 -3.40559 -81.975
rradius 22.7459
rwrist 27.4278
rhand -26.0253 2.30825
rfingers 7.12502
rthumb 0.521327 -27.6709
lclavicle -5.1684e-015 -8.54774e-015
lhumerus -24.6386 5.38064 87.9702
lradius 17.6604
lwrist -20.0918
lhand -26.0035 2.08436
lfingers 7.12502
lthumb 0.542365 32.0634
rfemur -25.7556 -6.00093 18.5254
rtibia 63.6964
rfoot -13.5083 -11.9672
rtoes -15.0926
lfemur -10.3457 -10.9161 -29.3919
ltibia 19.9616
lfoot -11.7679 1.99845
ltoes -2.61128
2
root 4.4847 16.511 -2.58728 -44.422 -85.3314 48.2029
lowerback 2.52623 -0.19345 -4.01991
upperback 1.56292 -0.361202 -0.456209
thorax 0.209935 -0.215063 1.79306
lowerneck -18.2944 -0.423296 -0.793007
upperneck 20.4222 -1.30129 3.36292
head 9.5048 -0.331817 1.11467
rclavicle 0 4.91992e-015
rhumerus -31.2348 -2.99483 -82.095
rradius 22.895
rwrist 27.0362
rhand -25.9701 2.2543
rfingers 7.12502
rthumb 0.574666 -27.7247
lclavicle 0 4.91992e-015
lhumerus -24.4458 5.28721 88.0361
lradius 17.8815
lwrist -19.873
lhand -26.0949 1.97286
lfingers 7.12502
lthumb 0.4541 31.9521
rfemur -26.4859 -5.3858 18.533
rtibia 62.3992
rfoot -14.253 -11.5979
rtoes -14.6924
lfemur -10.3754 -10.9976 -29.4365
ltibia 20.7043
lfoot -12.395 2.00405
ltoes -2.72899
3
root 4.50135 16.4997 -2.58316 -43.3333 -85.4179 47.0643
lowerback 2.59729 -0.21054 -3.99377
upperback 1.56855 -0.386365 -0.390524
thorax 0.177746 -0.22709 1.84683
lowerneck -18.3156 -0.448348 -0.788244
upperneck 20.4485 -1.34189 3.37434
head 9.51904 -0.348836 1.11257
rclavicle 7.15625e-015 4.02539e-015
rhumerus -31.2649 -2.91967 -82.0899
rradius 23.0366
rwrist 27.0761
rhand -25.9223 2.2952
rfingers 7.12502
rthumb 0.62075 -27.6836
lclavicle 7.15625e-015 4.02539e-015
lhumerus -24.3632 4.4754 88.2865
lradius 18.3685
lwrist -19.062
lhand -26.0022 2.12211
lfingers 7.12502
lthumb 0.54359 32.1012
rfemur -27.1406 -4.83363 18.6941
rtibia 60.9031
rfoot -14.8402 -11.4069
rtoes -15.7573
lfemur -10.2012 -11.0429 -29.3945
ltibia 21.2242
lfoot -12.9711 2.04143
ltoes -2.73828
4
root 4.5185 16.4808 -2.57994 -42.5442 -85.4155 46.2317
lowerback 2.65924 -0.250756 -4.05722
upperback 1.58301 -0.443875 -0.329926
thorax 0.162593 -0.25644 1.94628
lowerneck -18.2648 -0.437134 -0.806789
upperneck 20.3725 -1.32699 3.41365
head 9.48312 -0.33969 1.13072
rclavicle -1.98785e-015 1.23743e-014
rhumerus -31.2314 -2.89273 -82.0537
rradius 23.0615
rwrist 27.1762
rhand -25.9717 2.3489
rfingers 7.12502
rthumb 0.573066 -27.6301
lclavicle -1.98785e-015 1.23743e-014
lhumerus -24.2043 4.31581 88.3821
lradius 18.6339
lwrist -18.8677
lhand -26.1841 2.04272
lfingers 7.12502
lthumb 0.367975 32.0221
rfemur -27.6731 -4.30502 18.7222
rtibia 59.2793
rfoot -15.4062 -11.3736
rtoes -16.089
lfemur -10.013 -11.0608 -29.4429
ltibia 21.7037
lfoot -13.513 2.03374
ltoes -2.84361
5
root 4.53457 16.4669 -2.57683 -41.6294 -85.4435 45.2963
lowerback 2.73208 -0.286926 -4.05112
upperback 1.58362 -0.495329 -0.292993
thorax 0.126029 -0.281551 1.98256
lowerneck -18.272 -0.436887 -0.84182
upperneck 20.3312 -1.33908 3.51472
head 9.47135 -0.336635 1.16973
rclavicle -2.78299e-015 -2.83268e-015
rhumerus -31.2212 -2.84353 -82.0942
rradius 23.1243
rwrist 27.1298
rhand -26.0707 2.38138
rfingers 7.12502
rthumb 0.477442 -27.5978
lclavicle -2.78299e-015 -2.83268e-015
lhumerus -24.1456 3.51667 88.598
lradius 19.1153
lwrist -18.0367
lhand -26.1905 1.9643
lfingers 7.12502
lthumb 0.361763 31.9437
rfemur -28.1748 -3.75758 18.7937
rtibia 57.4494
rfoot -15.9311 -11.5017
rtoes -17.0965
lfemur -9.74952 -11.1927 -29.4457
ltibia 21.9934
lfoot -13.9496 2.03867
ltoes -2.1926
6
root 4.55044 16.4574 -2.57507 -40.2401 -85.5207 43.8524
lowerback 2.84239 -0.321455 -3.98642
upperback 1.58467 -0.544843 -0.240354
thorax 0.0683675 -0.30496 2.00253
lowerneck -18.2431 -0.414721 -0.821206
upperneck 20.2845 -1.31721 3.53524
head 9.44926 -0.323073 1.17596
rclavicle 9.93923e-015 1.07344e-014
rhumerus -31.2128 -2.83473 -82.1247
rradius 23.1716
rwrist 27.0222
rhand -26.092 2.45055
rfingers 7.12502
rthumb 0.456848 -27.5287
lclavicle 9.93923e-015 1.07344e-014
lhumerus -24.1122 2.97451 88.7298
lradius 19.5691
lwrist -17.4299
lhand -26.298 1.97772
lfingers 7.12502
lthumb 0.257914 31.9573
rfemur -28.5343 -3.15336 18.8935
rtibia 55.3965
rfoot -16.3437 -11.6031
rtoes -16.9924
lfemur -9.39249 -11.2321 -29.3796
ltibia 22.1618
lfoot -14.4263 2.12698
ltoes -2.29393
7
root 4.5628 16.4499 -2.5725 -40.2764 -85.4834 43.8756
lowerback 2.89003 -0.355752 -4.05839
upperback 1.57633 -0.595006 -0.249886
thorax 0.0371252 -0.329801 2.03484
lowerneck -18.2106 -0.422527 -0.780112
upperneck 20.2145 -1.33954 3.54697
head 9.41935 -0.3296 1.16964
rclavicle -3.97569e-015 1.58531e-014
rhumerus -31.2246 -2.89082 -82.1587
rradius 23.2009
rwrist 27.0146
rhand -26.0606 2.32009
rfingers 7.12502
rthumb 0.487179 -27.6591
lclavicle -3.97569e-015 1.58531e-014
lhumerus -24.1035 2.37012 88.8537
lradius 19.9666
lwrist -17.049
lhand -26.3937 2.04473
lfingers 7.12502
lthumb 0.165542 32.0244
rfemur -28.831 -2.57833 18.7874
rtibia 53.1454
rfoot -16.6179 -11.7493
rtoes -17.3934
lfemur -8.97073 -11.2541 -29.4967
ltibia 22.1793
lfoot -14.7748 2.1854
ltoes -2.6269
8
root 4.57796 16.4412 -2.57327 -40.4764 -85.3736 44.0908
lowerback 2.9291 -0.412798 -4.226
upperback 1.58473 -0.677421 -0.255025
thorax 0.031481 -0.372225 2.126
lowerneck -18.2276 -0.406446 -0.792259
upperneck 20.1281 -1.32064 3.59693
head 9.3923 -0.31591 1.19096
rclavicle 1.59028e-015 4.42296e-015
rhumerus -31.1736 -2.99085 -82.1766
rradius 23.1926
rwrist 26.9185
rhand -26.2693 2.44139
rfingers 7.12502
rthumb 0.285655 -27.5382
lclavicle 1.59028e-015 4.42296e-015
lhumerus -24.0184 1.79438 88.9961
lradius 20.3424
lwrist -16.3169
lhand -26.5794 1.83314
lfingers 7.12502
lthumb -0.0139025 31.8129
rfemur -29.0727 -2.04357 18.6013
rtibia 50.6584
rfoot -16.6591 -11.8689
rtoes -17.662
lfemur -8.55088 -11.2541 -29.6493
ltibia 22.0932
lfoot -15.0856 2.17947
ltoes -2.49453
9
root 4.59023 16.441 -2.57441 -39.8271 -85.3927 43.4414
lowerback 2.95985 -0.443459 -4.22381
upperback 1.58505 -0.719721 -0.24395
thorax 0.0176015 -0.393124 2.13762
lowerneck -18.1917 -0.405315 -0.781344
upperneck 20.0531 -1.32946 3.64178
head 9.36017 -0.314868 1.20287
rclavicle -4.77083e-015 -4.96962e-016
rhumerus -31.1535 -3.22808 -82.1513
rradius 23.1477
rwrist 27.2676
rhand -26.2505 2.29952
rfingers 7.12502
rthumb 0.303784 -27.68
lclavicle -4.77083e-015 -4.96962e-016
lhumerus -23.9878 1.29595 89.0744
lradius 20.7343
lwrist -15.9831
lhand -26.6141 1.9742
lfingers 7.12502
lthumb -0.0473697 31.9539
rfemur -29.181 -1.28191 18.5259
rtibia 48.0214
rfoot -16.5291 -12.1394
rtoes -17.2671
lfemur -8.02846 -11.2862 -29.6444
ltibia 21.8412
lfoot -15.3575 2.21358
ltoes -2.32072
10
root 4.60017 16.4374 -2.57659 -39.272 -85.4309 42.9438
lowerback 2.87815 -0.473411 -4.209
upperback 1.60836 -0.754497 -0.234069
thorax 0.0895774 -0.412254 2.13928
lowerneck -18.2473 -0.410435 -0.81042
upperneck 20.0014 -1.34004 3.70583
head 9.35334 -0.314064 1.22825
rclavicle 2.5842e-015 2.48481e-016
rhumerus -31.0878 -3.28912 -82.2326
rradius 23.1154
rwrist 27.049
rhand -26.3626 2.30483
rfingers 7.12502
rthumb 0.19552 -27.6748
lclavicle 2.5842e-015 2.48481e-016
lhumerus -23.8809 0.911656 89.1151
lradius 20.9867
lwrist -15.7422
lhand -26.8673 1.81207
lfingers 7.12502
lthumb -0.291903 31.7916
rfemur -29.2736 -0.620659 18.465
rtibia 45.215
rfoot -15.7672 -12.62
rtoes -17.9544
lfemur -7.50954 -11.2713 -29.6207
ltibia 21.4745
lfoot -15.4971 2.22237
ltoes -2.25695
11
root 4.60926 16.4408 -2.57916 -39.7518 -85.361 43.5075
lowerback 2.82494 -0.508861 -4.34577
upperback 1.58877 -0.802746 -0.25191
thorax 0.10441 -0.437123 2.19828
lowerneck -18.2568 -0.389168 -0.826501
upperneck 19.9591 -1.31561 3.75656
head 9.34022 -0.298171 1.25144
rclavicle 5.36719e-015 6.01324e-015
rhumerus -31.0864 -3.50091 -82.2238
rradius 23.0667
rwrist 27.356
rhand -26.4037 2.21358
rfingers 7.12502
rthumb 0.155851 -27.7661
lclavicle 5.36719e-015 6.01324e-015
lhumerus -23.8145 0.414906 89.2009
lradius 21.2406
lwrist -15.2361
lhand -27.0342 1.63574
lfingers 7.12502
lthumb -0.453152 31.615
rfemur -29.34 0.152996 18.1895
rtibia 42.3574
rfoot -14.9704 -13.0389
rtoes -18.0159
lfemur -6.94635 -11.223 -29.7296
ltibia 20.9779
lfoot -15.5857 2.21068
ltoes -2.39094
